Coordinates
version=1
nRows=11
nColumns=36
inDegrees=yes

Units are S.I. units (second, meters, Newtons, ...)
If the header above contains a line with 'inDegrees', this indicates whether rotational values are in degrees (yes) or radians (no).

endheader
time	pelvis_tilt	pelvis_list	pelvis_rotation	pelvis_tx	pelvis_ty	pelvis_tz	hip_flexion_r	hip_adduction_r	hip_rotation_r	knee_angle_r	knee_angle_r_beta	ankle_angle_r	subtalar_angle_r	mtp_angle_r	hip_flexion_l	hip_adduction_l	hip_rotation_l	knee_angle_l	knee_angle_l_beta	ankle_angle_l	subtalar_angle_l	mtp_angle_l	lumbar_extension	lumbar_bending	lumbar_rotation	arm_flex_r	arm_add_r	arm_rot_r	elbow_flex_r	pro_sup_r	arm_flex_l	arm_add_l	arm_rot_l	elbow_flex_l	pro_sup_l
      2.31250000	    -12.31565823	      0.69887890	     -0.31525077	      0.24394090	      1.04234430	     -0.06271241	     14.83502378	     -5.37735462	     -6.32716347	      7.19249708	      0.12553276	    -34.99976245	      8.04479531	     -7.49999987	     14.68181903	     -7.11195136	     -3.43199073	      7.62097378	      0.13301108	    -36.03141088	      4.92524184	     -7.49999987	     -4.04569007	     -3.13952431	     -5.04019759	    -23.66508638	    -19.62795382	    -86.94893840	     87.06040038	     76.04040739	    -30.72688948	    -17.24580502	   -126.49989407	     47.30891870	     80.14592906
      2.31666670	    -11.88521861	      0.93401478	     -0.40761864	      0.24455060	      1.05356171	     -0.06277619	     13.73009138	     -5.67685529	     -7.30682811	      5.40521018	      0.09433871	    -36.35068947	      7.55939819	     -7.49999987	     13.49634748	     -6.77451587	     -4.52208502	      5.98617271	      0.10447842	    -36.46534082	      4.96162726	     -7.49999987	     -4.47791449	     -3.89769963	     -4.72173055	    -22.71314369	    -19.82600158	    -87.75061222	     82.83671094	     72.94013733	    -30.86518520	    -16.57664096	   -126.99336919	     47.02866019	     76.65944532
      2.32083330	    -12.06686064	      1.36775084	     -0.36135310	      0.24839001	      1.06084508	     -0.06455738	     13.29905618	     -6.26406586	     -8.45874752	      3.73356181	      0.06516295	    -37.26700066	      6.90795785	     -7.49999987	     13.13440946	     -6.10315372	     -5.41943295	      4.84825715	      0.08461805	    -36.35093355	      4.51807500	     -7.49999987	     -3.90161879	     -4.42544583	     -4.61721717	    -22.54433600	    -19.72875614	    -87.90056879	     81.67072115	     72.81660621	    -31.22768973	    -16.27571739	   -127.30640956	     45.94499108	     76.64496519
      2.32500000	    -11.94169298	      1.58490666	     -0.33353026	      0.24875285	      1.06654551	     -0.06385976	     12.76794790	     -6.53841426	    -10.09012553	      2.61011600	      0.04555512	    -37.15695694	      5.80135008	     -7.49999987	     12.54447227	     -5.77526872	     -6.77749007	      3.89395931	      0.06796241	    -35.58675059	      4.27517355	     -7.49999987	     -4.01840553	     -4.94825065	     -5.54028869	    -21.04396389	    -20.22318177	    -87.35623375	     78.21237826	     71.75100610	    -32.40223831	    -16.20106458	   -128.78157912	     42.71585444	     76.54022520
      2.32916670	    -11.87445889	      1.78579567	     -0.41591520	      0.24924390	      1.07256882	     -0.06506312	     12.45103357	     -6.75730677	    -12.16244342	      1.79803504	      0.03138163	    -36.83117090	      4.54739587	     -7.49999987	     12.15031194	     -5.37680670	     -8.02753899	      3.23360906	      0.05643712	    -34.50641351	      3.87854813	     -7.49999987	     -4.00439610	     -5.17979021	     -5.13648557	    -21.27309065	    -20.33785180	    -87.08918938	     75.90935627	     71.41295240	    -32.05615051	    -16.37747614	   -128.98714440	     41.98954825	     76.51994397
      2.33333330	    -11.93429993	      1.95891503	     -0.68443964	      0.24931896	      1.07982006	     -0.06382288	     12.57609378	     -6.85001976	    -14.01406852	      1.29796848	      0.02265382	    -35.97473224	      3.21993070	     -7.49999987	     11.98582804	     -5.14818644	     -9.43844256	      2.78001559	      0.04852043	    -33.71589700	      3.04419914	     -7.49999987	     -3.81629868	     -5.51597507	     -5.05636996	    -21.53206506	    -20.24964523	    -87.22830243	     75.72016955	     71.28605792	    -32.24085341	    -16.08481702	   -129.22409233	     41.87271155	     76.50353744
      2.33750000	    -12.04979715	      2.06808096	     -0.94145186	      0.24773070	      1.08470299	     -0.06264153	     12.91922335	     -6.89031534	    -15.47510675	      1.08506169	      0.01893790	    -35.36628443	      2.17830868	     -7.49999987	     12.05918356	     -5.07621058	    -10.51846327	      2.51965780	      0.04397632	    -32.99563650	      2.40031655	     -7.49999987	     -3.83668323	     -5.64799563	     -4.99195587	    -21.50392329	    -19.93548384	    -86.87720722	     75.46247201	     71.17641762	    -32.00935029	    -16.10899042	   -129.47577952	     41.91413848	     76.47800855
      2.34166670	    -12.25917271	      2.08040887	     -1.13612202	      0.24897932	      1.09160606	     -0.06214284	     13.23969558	     -6.79873445	    -16.75808259	      0.99191280	      0.01731214	    -35.19229501	      1.43068656	     -7.49999987	     12.23586623	     -5.12048677	    -11.45589941	      2.31610490	      0.04042366	    -32.56313539	      2.09872364	     -7.49999987	     -3.61782127	     -5.89361324	     -5.15943032	    -22.35411816	    -19.21884065	    -85.63839641	     75.92794821	     70.50336900	    -30.99741489	    -16.48390852	   -130.02823986	     43.36142264	     76.50332181
      2.34583330	    -12.27595152	      2.02966064	     -1.43361050	      0.25125500	      1.09654457	     -0.06272329	     13.25569185	     -6.69033015	    -17.81970576	      1.04438371	      0.01822793	    -35.36754412	      0.82620854	     -7.49999987	     12.11672965	     -5.19960988	    -12.09142693	      2.21387164	      0.03863935	    -32.42567347	      1.66385906	     -7.49999987	     -3.51306402	     -6.05655958	     -5.20524793	    -22.31336825	    -18.66182329	    -85.06416895	     76.24122188	     70.42621649	    -30.63636734	    -16.74224856	   -129.70708854	     43.69747239	     76.55676061
      2.35000000	    -12.28863268	      1.94108782	     -1.70227375	      0.25245369	      1.10623928	     -0.06555668	     13.15939104	     -6.64566012	    -18.56016877	      1.16264511	      0.02029199	    -36.04009984	      0.43060471	     -7.49999987	     12.05311987	     -5.17958905	    -12.67219784	      2.31744357	      0.04044702	    -32.62609535	      1.38231980	     -7.49999987	     -3.40831996	     -5.78619353	     -4.36692256	    -24.01607223	    -17.84962893	    -84.83627899	     77.23476432	     67.31160244	    -29.53876637	    -16.46718400	   -126.98473506	     45.38307323	     74.03111009
      2.35416670	    -12.19911168	      1.78661932	     -1.87325254	      0.25291419	      1.11130317	     -0.06416658	     12.94887172	     -6.52880231	    -19.03689956	      1.32458173	      0.02311831	    -36.43342091	     -0.01537872	     -7.49999987	     11.97710043	     -5.36953790	    -13.07777049	      2.67058644	      0.04661053	    -32.89494694	      0.79257389	     -7.49999987	     -3.34954984	     -5.72206001	     -4.29504186	    -24.56698572	    -17.57040104	    -83.82956649	     77.88692397	     67.08043858	    -29.35628988	    -16.21814198	   -125.71148312	     45.87622159	     74.43153732
